# xmcd
#
# Track frame offsets:
#	150
#	13641
#	33031
#	48466
#	76416
#	94377
#	119923
#	137714
#	151114
#	161504
#	182657
#	205957
#	222973
#	239902
#	257516
#	277568
#	296361
#	311876
#	335563
#
# Disc length: 4670 seconds
#
# Revision: 0
# Processed by: cddbd v1.5.2PL0 Copyright (c) Steve Scherf et al.
# Submitted via: EZCDAudioConverter 1.0.8.1
#
DISCID=12123c13
DTITLE=Kauko Röyhkä - Olen Messias - Valitut Palat 1980-2012 cd2
DYEAR=2012
DGENRE=
TTITLE0=Samantekevää
TTITLE1=Majuri Thompson
TTITLE2=Ennen olin kokonaan toinen
TTITLE3=Mielummin vanha kuin aikuinen
TTITLE4=Mainostaulujen taakse
TTITLE5=Paha maa
TTITLE6=Olen messias
TTITLE7=Majavalakki
TTITLE8=Ihmelapsen viimeiset hetket
TTITLE9=Malagalainen
TTITLE10=Tuntemattomalle
TTITLE11=Korsikalainen
TTITLE12=Valehtelijat
TTITLE13=Pastoraali
TTITLE14=Huutoa puistosta
TTITLE15=Tulit vastaan mua
TTITLE16=Edgar Allan Poe
TTITLE17=Katolla
TTITLE18=Talvella
EXTD=
EXTT0=
EXTT1=
EXTT2=
EXTT3=
EXTT4=
EXTT5=
EXTT6=
EXTT7=
EXTT8=
EXTT9=
EXTT10=
EXTT11=
EXTT12=
EXTT13=
EXTT14=
EXTT15=
EXTT16=
EXTT17=
EXTT18=
PLAYORDER=
